<?xml version="1.0" standalone="no"?>
<!DOCTYPE svg PUBLIC "-//W3C//DTD SVG 20010904//EN"
 "http://www.w3.org/TR/2001/REC-SVG-20010904/DTD/svg10.dtd">
<svg version="1.0" xmlns="http://www.w3.org/2000/svg"
 width="700.000000pt" height="700.000000pt" viewBox="0 0 700.000000 700.000000"
 preserveAspectRatio="xMidYMid meet">
<metadata>
Created by potrace 1.14, written by Peter Selinger 2001-2017
</metadata>
<g transform="translate(0.000000,700.000000) scale(0.100000,-0.100000)"
fill="#000000" stroke="none">
<path d="M0 3500 l0 -3500 3500 0 3500 0 0 3500 0 3500 -3500 0 -3500 0 0
-3500z m6700 0 l0 -3200 -3200 0 -3200 0 0 3200 0 3200 3200 0 3200 0 0 -3200z"/>
<path d="M4572 3844 c-224 -37 -406 -167 -501 -357 -77 -152 -76 -137 -76
-977 0 -565 3 -763 13 -820 51 -295 232 -486 506 -535 114 -21 276 -16 371 9
168 45 284 144 365 309 l50 102 0 -203 0 -202 130 0 130 0 0 725 0 725 -385 0
-386 0 3 -132 3 -133 233 -3 234 -2 -4 -308 c-4 -292 -5 -310 -27 -364 -51
-129 -136 -209 -266 -250 -94 -30 -269 -30 -362 0 -125 40 -212 115 -267 231
l-31 66 0 775 0 775 23 58 c15 35 45 81 80 118 94 102 205 143 382 142 266 -2
431 -120 471 -337 l12 -66 150 0 150 0 -7 61 c-28 274 -187 477 -441 564 -130
44 -383 58 -553 29z"/>
<path d="M1560 2500 l0 -1330 150 0 150 0 2 1024 3 1025 290 -1022 291 -1022
150 -3 151 -3 232 818 c128 450 261 915 294 1033 l62 215 3 -1032 2 -1033 150
0 150 0 0 1330 0 1330 -217 0 -218 0 -299 -1053 c-165 -578 -302 -1055 -306
-1060 -4 -5 -424 1445 -602 2081 l-9 32 -214 0 -215 0 0 -1330z"/>
</g>
</svg>
